<svg xmlns="http://www.w3.org/2000/svg" xmlns:xlink="http://www.w3.org/1999/xlink" width="2000" zoomAndPan="magnify" viewBox="0 0 1500 1499.999933" height="2000" preserveAspectRatio="xMidYMid meet" version="1.0"><defs><clipPath id="f2d74e568e"><path d="M 447 0.761719 L 498 0.761719 L 498 454 L 447 454 Z M 447 0.761719 " clip-rule="nonzero"></path></clipPath><clipPath id="e45e408070"><path d="M 313 352 L 880 352 L 880 1069.238281 L 313 1069.238281 Z M 313 352 " clip-rule="nonzero"></path></clipPath><clipPath id="0c568dd15f"><rect x="0" width="1004" y="0" height="1070"></rect></clipPath></defs><g transform="matrix(1, 0, 0, 1, 248, 215)"><g clip-path="url(#0c568dd15f)"><path stroke-linecap="round" transform="matrix(0.00000000323258, -1.85213, 1.85213, 0.00000000323258, 379.058338, 851.375904)" fill="none" stroke-linejoin="miter" d="M 13.500572 13.500222 L 118.978806 13.500222 " stroke="#1283dd" stroke-width="27" stroke-opacity="1" stroke-miterlimit="4"></path><path stroke-linecap="round" transform="matrix(0, 1.85213, -1.85213, 0, 621.65659, 208.208537)" fill="none" stroke-linejoin="miter" d="M 13.499271 13.500267 L 118.977505 13.500267 " stroke="#1283dd" stroke-width="27" stroke-opacity="1" stroke-miterlimit="4"></path><path stroke-linecap="round" transform="matrix(-1.85213, 0, 0, -1.85213, 807.464502, 659.737673)" fill="none" stroke-linejoin="miter" d="M 13.499899 13.499755 L 110.845604 13.499755 " stroke="#1283dd" stroke-width="27" stroke-opacity="1" stroke-miterlimit="4"></path><path stroke-linecap="round" transform="matrix(1.85213, 0, 0, 1.85213, 197.261373, 404.140407)" fill="none" stroke-linejoin="miter" d="M 13.50027 13.500201 L 110.845976 13.500201 " stroke="#1283dd" stroke-width="27" stroke-opacity="1" stroke-miterlimit="4"></path><path stroke-linecap="round" transform="matrix(0, -1.85213, 1.85213, 0, 442.768478, 851.375904)" fill="none" stroke-linejoin="miter" d="M 13.500572 13.500652 L 118.978806 13.500652 " stroke="#1283dd" stroke-width="27" stroke-opacity="1" stroke-miterlimit="4"></path><path stroke-linecap="round" transform="matrix(0, 1.85213, -1.85213, 0, 561.503092, 208.208537)" fill="none" stroke-linejoin="miter" d="M 13.499271 13.499644 L 118.977505 13.499644 " stroke="#1283dd" stroke-width="27" stroke-opacity="1" stroke-miterlimit="4"></path><path stroke-linecap="round" transform="matrix(-1.85213, -0.00000000323258, 0.00000000323258, -1.85213, 808.328766, 588.619991)" fill="none" stroke-linejoin="miter" d="M 13.50043 13.499488 L 110.846135 13.499488 " stroke="#1283dd" stroke-width="27" stroke-opacity="1" stroke-miterlimit="4"></path><path stroke-linecap="round" transform="matrix(1.85213, -0.000000000000001608, 0.000000000000001608, 1.85213, 197.261373, 471.178137)" fill="none" stroke-linejoin="miter" d="M 13.50027 13.500921 L 110.379874 13.500921 " stroke="#1283dd" stroke-width="27" stroke-opacity="1" stroke-miterlimit="4"></path><path stroke-linecap="round" transform="matrix(0.00000000323258, -1.85213, 1.85213, 0.00000000323258, 507.020744, 1062.780486)" fill="none" stroke-linejoin="miter" d="M 13.499671 13.499429 L 230.918296 13.499428 " stroke="#1283dd" stroke-width="27" stroke-opacity="1" stroke-miterlimit="4"></path><g clip-path="url(#f2d74e568e)"><path stroke-linecap="round" transform="matrix(0, 1.85213, -1.85213, 0, 497.349489, 0.883829)" fill="none" stroke-linejoin="miter" d="M 13.499535 13.498964 L 230.91816 13.498964 " stroke="#1283dd" stroke-width="27" stroke-opacity="1" stroke-miterlimit="4"></path></g><path stroke-linecap="round" transform="matrix(-1.85213, -0.00000000323258, 0.00000000323258, -1.85213, 1002.918134, 521.185613)" fill="none" stroke-linejoin="miter" d="M 13.500173 13.499065 L 215.914955 13.499064 " stroke="#1283dd" stroke-width="27" stroke-opacity="1" stroke-miterlimit="4"></path><path stroke-linecap="round" transform="matrix(1.85213, 0.000000000000001836, -0.000000000000001836, 1.85213, 1.066311, 538.612515)" fill="none" stroke-linejoin="miter" d="M 13.500135 13.500497 L 215.914918 13.500497 " stroke="#1283dd" stroke-width="27" stroke-opacity="1" stroke-miterlimit="4"></path><g clip-path="url(#e45e408070)"><path stroke-linecap="round" transform="matrix(0.00150229, -1.852129, 1.852129, 0.00150229, 571.282491, 1069.082837)" fill="none" stroke-linejoin="miter" d="M 13.500928 13.499013 L 234.31522 13.499177 " stroke="#1283dd" stroke-width="27" stroke-opacity="1" stroke-miterlimit="4"></path></g><path stroke-linecap="round" transform="matrix(0, 1.85213, -1.85213, 0, 433.095375, 1.097432)" fill="none" stroke-linejoin="miter" d="M 13.500205 13.500961 L 230.91672 13.500961 " stroke="#1283dd" stroke-width="27" stroke-opacity="1" stroke-miterlimit="4"></path><path stroke-linecap="round" transform="matrix(-1.85213, 0, 0, -1.85213, 1002.05387, 454.31569)" fill="none" stroke-linejoin="miter" d="M 13.499642 13.499697 L 215.914424 13.499697 " stroke="#1283dd" stroke-width="27" stroke-opacity="1" stroke-miterlimit="4"></path><path stroke-linecap="round" transform="matrix(1.85213, 0, 0, 1.85213, 1.796623, 606.046893)" fill="none" stroke-linejoin="miter" d="M 13.50022 13.500074 L 215.915002 13.500074 " stroke="#1283dd" stroke-width="27" stroke-opacity="1" stroke-miterlimit="4"></path></g></g></svg>