<svg xmlns="http://www.w3.org/2000/svg" xmlns:xlink="http://www.w3.org/1999/xlink" width="2000" zoomAndPan="magnify" viewBox="0 0 1500 1499.999933" height="2000" preserveAspectRatio="xMidYMid meet" version="1.0"><defs><clipPath id="c83c5e2950"><path d="M 447 0.761719 L 498 0.761719 L 498 454 L 447 454 Z M 447 0.761719 " clip-rule="nonzero"></path></clipPath><clipPath id="6dfcdc1413"><path d="M 313 352 L 880 352 L 880 1069.238281 L 313 1069.238281 Z M 313 352 " clip-rule="nonzero"></path></clipPath><clipPath id="b6af163f13"><rect x="0" width="1004" y="0" height="1070"></rect></clipPath></defs><g transform="matrix(1, 0, 0, 1, 248, 215)"><g clip-path="url(#b6af163f13)"><path stroke-linecap="round" transform="matrix(0.00000000323258, -1.85213, 1.85213, 0.00000000323258, 379.058338, 851.376024)" fill="none" stroke-linejoin="miter" d="M 13.500637 13.500222 L 118.978871 13.500222 " stroke="#ffffff" stroke-width="27" stroke-opacity="1" stroke-miterlimit="4"></path><path stroke-linecap="round" transform="matrix(0, 1.85213, -1.85213, 0, 621.65659, 208.208595)" fill="none" stroke-linejoin="miter" d="M 13.499239 13.500267 L 118.977474 13.500267 " stroke="#ffffff" stroke-width="27" stroke-opacity="1" stroke-miterlimit="4"></path><path stroke-linecap="round" transform="matrix(-1.85213, 0, 0, -1.85213, 807.464502, 659.737745)" fill="none" stroke-linejoin="miter" d="M 13.499899 13.499794 L 110.845604 13.499794 " stroke="#ffffff" stroke-width="27" stroke-opacity="1" stroke-miterlimit="4"></path><path stroke-linecap="round" transform="matrix(1.85213, 0, 0, 1.85213, 197.261373, 404.140407)" fill="none" stroke-linejoin="miter" d="M 13.50027 13.500201 L 110.845976 13.500201 " stroke="#ffffff" stroke-width="27" stroke-opacity="1" stroke-miterlimit="4"></path><path stroke-linecap="round" transform="matrix(0, -1.85213, 1.85213, 0, 442.768478, 851.376024)" fill="none" stroke-linejoin="miter" d="M 13.500637 13.500652 L 118.978871 13.500652 " stroke="#ffffff" stroke-width="27" stroke-opacity="1" stroke-miterlimit="4"></path><path stroke-linecap="round" transform="matrix(0, 1.85213, -1.85213, 0, 561.503092, 208.208595)" fill="none" stroke-linejoin="miter" d="M 13.499239 13.499644 L 118.977474 13.499644 " stroke="#ffffff" stroke-width="27" stroke-opacity="1" stroke-miterlimit="4"></path><path stroke-linecap="round" transform="matrix(-1.85213, -0.00000000323258, 0.00000000323258, -1.85213, 808.328766, 588.620039)" fill="none" stroke-linejoin="miter" d="M 13.50043 13.499514 L 110.846135 13.499514 " stroke="#ffffff" stroke-width="27" stroke-opacity="1" stroke-miterlimit="4"></path><path stroke-linecap="round" transform="matrix(1.85213, -0.000000000000001608, 0.000000000000001608, 1.85213, 197.261373, 471.178209)" fill="none" stroke-linejoin="miter" d="M 13.50027 13.500882 L 110.379874 13.500882 " stroke="#ffffff" stroke-width="27" stroke-opacity="1" stroke-miterlimit="4"></path><path stroke-linecap="round" transform="matrix(0.00000000323258, -1.85213, 1.85213, 0.00000000323258, 507.020744, 1062.780486)" fill="none" stroke-linejoin="miter" d="M 13.499671 13.499429 L 230.918296 13.499428 " stroke="#ffffff" stroke-width="27" stroke-opacity="1" stroke-miterlimit="4"></path><g clip-path="url(#c83c5e2950)"><path stroke-linecap="round" transform="matrix(0, 1.85213, -1.85213, 0, 497.349489, 0.883887)" fill="none" stroke-linejoin="miter" d="M 13.499503 13.498964 L 230.918128 13.498964 " stroke="#ffffff" stroke-width="27" stroke-opacity="1" stroke-miterlimit="4"></path></g><path stroke-linecap="round" transform="matrix(-1.85213, -0.00000000323258, 0.00000000323258, -1.85213, 1002.918134, 521.185685)" fill="none" stroke-linejoin="miter" d="M 13.500173 13.499103 L 215.914955 13.499103 " stroke="#ffffff" stroke-width="27" stroke-opacity="1" stroke-miterlimit="4"></path><path stroke-linecap="round" transform="matrix(1.85213, 0.000000000000001836, -0.000000000000001836, 1.85213, 1.066311, 538.612563)" fill="none" stroke-linejoin="miter" d="M 13.500135 13.500471 L 215.914918 13.500471 " stroke="#ffffff" stroke-width="27" stroke-opacity="1" stroke-miterlimit="4"></path><g clip-path="url(#6dfcdc1413)"><path stroke-linecap="round" transform="matrix(0.00150229, -1.852129, 1.852129, 0.00150229, 571.282491, 1069.082837)" fill="none" stroke-linejoin="miter" d="M 13.500928 13.499013 L 234.31522 13.499177 " stroke="#ffffff" stroke-width="27" stroke-opacity="1" stroke-miterlimit="4"></path></g><path stroke-linecap="round" transform="matrix(0, 1.85213, -1.85213, 0, 433.095375, 1.097491)" fill="none" stroke-linejoin="miter" d="M 13.500173 13.500961 L 230.916689 13.500961 " stroke="#ffffff" stroke-width="27" stroke-opacity="1" stroke-miterlimit="4"></path><path stroke-linecap="round" transform="matrix(-1.85213, 0, 0, -1.85213, 1002.05387, 454.315738)" fill="none" stroke-linejoin="miter" d="M 13.499642 13.499723 L 215.914424 13.499723 " stroke="#ffffff" stroke-width="27" stroke-opacity="1" stroke-miterlimit="4"></path><path stroke-linecap="round" transform="matrix(1.85213, 0, 0, 1.85213, 1.796623, 606.046941)" fill="none" stroke-linejoin="miter" d="M 13.50022 13.500048 L 215.915002 13.500048 " stroke="#ffffff" stroke-width="27" stroke-opacity="1" stroke-miterlimit="4"></path></g></g></svg>