<svg xmlns="http://www.w3.org/2000/svg" xmlns:xlink="http://www.w3.org/1999/xlink" width="2000" zoomAndPan="magnify" viewBox="0 0 1500 1499.999933" height="2000" preserveAspectRatio="xMidYMid meet" version="1.0"><defs><g></g><clipPath id="d8ccbe44dc"><path d="M 186 0.640625 L 207 0.640625 L 207 190 L 186 190 Z M 186 0.640625 " clip-rule="nonzero"></path></clipPath><clipPath id="c6bedb861f"><path d="M 240 196 L 417.558594 196 L 417.558594 218 L 240 218 Z M 240 196 " clip-rule="nonzero"></path></clipPath><clipPath id="819b2589f6"><path d="M 0.199219 224 L 178 224 L 178 246 L 0.199219 246 Z M 0.199219 224 " clip-rule="nonzero"></path></clipPath><clipPath id="6e85d9606c"><path d="M 130 147 L 366 147 L 366 445.601562 L 130 445.601562 Z M 130 147 " clip-rule="nonzero"></path></clipPath><clipPath id="e67be9094c"><path d="M 159 0.640625 L 181 0.640625 L 181 190 L 159 190 Z M 159 0.640625 " clip-rule="nonzero"></path></clipPath><clipPath id="5d40beb271"><path d="M 240 168 L 417.558594 168 L 417.558594 190 L 240 190 Z M 240 168 " clip-rule="nonzero"></path></clipPath><clipPath id="87ac881917"><path d="M 0.199219 252 L 178 252 L 178 274 L 0.199219 274 Z M 0.199219 252 " clip-rule="nonzero"></path></clipPath><clipPath id="0575ca3dd0"><rect x="0" width="418" y="0" height="446"></rect></clipPath></defs><g transform="matrix(1, 0, 0, 1, 37, 434)"><g clip-path="url(#0575ca3dd0)"><path stroke-linecap="round" transform="matrix(0.00000000134578, -0.771078, 0.771078, 0.00000000134578, 157.643444, 354.902294)" fill="none" stroke-linejoin="miter" d="M 13.500725 13.5022 L 118.979125 13.5022 " stroke="#1283dd" stroke-width="27" stroke-opacity="1" stroke-miterlimit="4"></path><path stroke-linecap="round" transform="matrix(0, 0.771078, -0.771078, 0, 258.641805, 87.139192)" fill="none" stroke-linejoin="miter" d="M 13.497582 13.502319 L 118.975982 13.502319 " stroke="#1283dd" stroke-width="27" stroke-opacity="1" stroke-miterlimit="4"></path><path stroke-linecap="round" transform="matrix(-0.771078, 0, 0, -0.771078, 335.997237, 275.119586)" fill="none" stroke-linejoin="miter" d="M 13.502272 13.498834 L 110.844737 13.498834 " stroke="#1283dd" stroke-width="27" stroke-opacity="1" stroke-miterlimit="4"></path><path stroke-linecap="round" transform="matrix(0.771078, 0, 0, 0.771078, 81.957823, 168.70942)" fill="none" stroke-linejoin="miter" d="M 13.499762 13.497691 L 110.847293 13.497691 " stroke="#1283dd" stroke-width="27" stroke-opacity="1" stroke-miterlimit="4"></path><path stroke-linecap="round" transform="matrix(0, -0.771078, 0.771078, 0, 184.167222, 354.902294)" fill="none" stroke-linejoin="miter" d="M 13.500725 13.501758 L 118.979125 13.501758 " stroke="#1283dd" stroke-width="27" stroke-opacity="1" stroke-miterlimit="4"></path><path stroke-linecap="round" transform="matrix(0, 0.771078, -0.771078, 0, 233.59875, 87.139192)" fill="none" stroke-linejoin="miter" d="M 13.497582 13.502208 L 118.975982 13.502208 " stroke="#1283dd" stroke-width="27" stroke-opacity="1" stroke-miterlimit="4"></path><path stroke-linecap="round" transform="matrix(-0.771078, -0.00000000134578, 0.00000000134578, -0.771078, 336.357062, 245.511873)" fill="none" stroke-linejoin="miter" d="M 13.49779 13.50099 L 110.84532 13.50099 " stroke="#1283dd" stroke-width="27" stroke-opacity="1" stroke-miterlimit="4"></path><path stroke-linecap="round" transform="matrix(0.771078, -0.000000000000000669, 0.000000000000000669, 0.771078, 81.95783, 196.618559)" fill="none" stroke-linejoin="miter" d="M 13.499753 13.49901 L 110.381215 13.49901 " stroke="#1283dd" stroke-width="27" stroke-opacity="1" stroke-miterlimit="4"></path><path stroke-linecap="round" transform="matrix(0.00000000134578, -0.771078, 0.771078, 0.00000000134578, 210.916642, 442.914208)" fill="none" stroke-linejoin="miter" d="M 13.500979 13.502509 L 230.916881 13.502509 " stroke="#1283dd" stroke-width="27" stroke-opacity="1" stroke-miterlimit="4"></path><g clip-path="url(#d8ccbe44dc)"><path stroke-linecap="round" transform="matrix(0, 0.771078, -0.771078, 0, 206.890345, 0.825919)" fill="none" stroke-linejoin="miter" d="M 13.498584 13.500426 L 230.919552 13.500426 " stroke="#1283dd" stroke-width="27" stroke-opacity="1" stroke-miterlimit="4"></path></g><g clip-path="url(#c6bedb861f)"><path stroke-linecap="round" transform="matrix(-0.771078, -0.00000000134578, 0.00000000134578, -0.771078, 417.368426, 217.437677)" fill="none" stroke-linejoin="miter" d="M 13.502396 13.501019 L 215.912918 13.501018 " stroke="#1283dd" stroke-width="27" stroke-opacity="1" stroke-miterlimit="4"></path></g><g clip-path="url(#819b2589f6)"><path stroke-linecap="round" transform="matrix(0.771078, 0.000000000000000764, -0.000000000000000764, 0.771078, 0.278011, 224.692814)" fill="none" stroke-linejoin="miter" d="M 13.499924 13.498964 L 215.915512 13.498964 " stroke="#1283dd" stroke-width="27" stroke-opacity="1" stroke-miterlimit="4"></path></g><g clip-path="url(#6e85d9606c)"><path stroke-linecap="round" transform="matrix(0.000625434, -0.771077, 0.771077, 0.000625434, 237.670107, 445.53796)" fill="none" stroke-linejoin="miter" d="M 13.500184 13.502267 L 234.315407 13.500469 " stroke="#1283dd" stroke-width="27" stroke-opacity="1" stroke-miterlimit="4"></path></g><g clip-path="url(#e67be9094c)"><path stroke-linecap="round" transform="matrix(0, 0.771078, -0.771078, 0, 180.140103, 0.914835)" fill="none" stroke-linejoin="miter" d="M 13.499787 13.500113 L 230.915689 13.500113 " stroke="#1283dd" stroke-width="27" stroke-opacity="1" stroke-miterlimit="4"></path></g><g clip-path="url(#5d40beb271)"><path stroke-linecap="round" transform="matrix(-0.771078, 0, 0, -0.771078, 417.008618, 189.598442)" fill="none" stroke-linejoin="miter" d="M 13.501834 13.501809 L 215.912356 13.501809 " stroke="#1283dd" stroke-width="27" stroke-opacity="1" stroke-miterlimit="4"></path></g><g clip-path="url(#87ac881917)"><path stroke-linecap="round" transform="matrix(0.771078, 0, 0, 0.771078, 0.58205, 252.76707)" fill="none" stroke-linejoin="miter" d="M 13.500765 13.498915 L 215.916352 13.498915 " stroke="#1283dd" stroke-width="27" stroke-opacity="1" stroke-miterlimit="4"></path></g></g></g><g fill="#000000" fill-opacity="1"><g transform="translate(486.328383, 739.834836)"><g><path d="M 55.5 -64.625 L 55.5 -23 C 55.5 -16.125 55.878906 -11.828125 56.640625 -10.109375 C 57.398438 -8.390625 58.882812 -6.882812 61.09375 -5.59375 C 63.3125 -4.3125 66.304688 -3.671875 70.078125 -3.671875 L 74.53125 -3.671875 L 74.53125 0 L 4.265625 0 L 4.265625 -3.671875 L 8.71875 -3.671875 C 12.613281 -3.671875 15.753906 -4.363281 18.140625 -5.75 C 19.859375 -6.675781 21.179688 -8.257812 22.109375 -10.5 C 22.828125 -12.09375 23.1875 -16.257812 23.1875 -23 L 23.1875 -111.40625 C 23.1875 -118.28125 22.820312 -122.570312 22.09375 -124.28125 C 21.375 -126 19.90625 -127.503906 17.6875 -128.796875 C 15.476562 -130.085938 12.488281 -130.734375 8.71875 -130.734375 L 4.265625 -130.734375 L 4.265625 -134.390625 L 74.53125 -134.390625 L 74.53125 -130.734375 L 70.078125 -130.734375 C 66.171875 -130.734375 63.03125 -130.039062 60.65625 -128.65625 C 58.9375 -127.726562 57.582031 -126.140625 56.59375 -123.890625 C 55.863281 -122.304688 55.5 -118.144531 55.5 -111.40625 L 55.5 -73.34375 L 102.984375 -73.34375 L 102.984375 -111.40625 C 102.984375 -118.28125 102.617188 -122.570312 101.890625 -124.28125 C 101.160156 -126 99.671875 -127.503906 97.421875 -128.796875 C 95.179688 -130.085938 92.175781 -130.734375 88.40625 -130.734375 L 84.046875 -130.734375 L 84.046875 -134.390625 L 154.21875 -134.390625 L 154.21875 -130.734375 L 149.859375 -130.734375 C 145.890625 -130.734375 142.75 -130.039062 140.4375 -128.65625 C 138.71875 -127.726562 137.363281 -126.140625 136.375 -123.890625 C 135.65625 -122.304688 135.296875 -118.144531 135.296875 -111.40625 L 135.296875 -23 C 135.296875 -16.125 135.65625 -11.828125 136.375 -10.109375 C 137.101562 -8.390625 138.585938 -6.882812 140.828125 -5.59375 C 143.078125 -4.3125 146.085938 -3.671875 149.859375 -3.671875 L 154.21875 -3.671875 L 154.21875 0 L 84.046875 0 L 84.046875 -3.671875 L 88.40625 -3.671875 C 92.375 -3.671875 95.515625 -4.363281 97.828125 -5.75 C 99.546875 -6.675781 100.898438 -8.257812 101.890625 -10.5 C 102.617188 -12.09375 102.984375 -16.257812 102.984375 -23 L 102.984375 -64.625 Z M 55.5 -64.625 "></path></g></g><g transform="translate(644.218543, 739.834836)"><g><path d="M 84.4375 -38.25 L 36.96875 -38.25 L 31.3125 -25.171875 C 29.46875 -20.816406 28.546875 -17.21875 28.546875 -14.375 C 28.546875 -10.601562 30.066406 -7.828125 33.109375 -6.046875 C 34.890625 -4.984375 39.28125 -4.191406 46.28125 -3.671875 L 46.28125 0 L 1.578125 0 L 1.578125 -3.671875 C 6.410156 -4.390625 10.378906 -6.382812 13.484375 -9.65625 C 16.585938 -12.925781 20.421875 -19.6875 24.984375 -29.9375 L 73.046875 -137.171875 L 74.9375 -137.171875 L 123.390625 -26.953125 C 128.015625 -16.515625 131.816406 -9.941406 134.796875 -7.234375 C 137.046875 -5.179688 140.21875 -3.992188 144.3125 -3.671875 L 144.3125 0 L 79.296875 0 L 79.296875 -3.671875 L 81.96875 -3.671875 C 87.1875 -3.671875 90.851562 -4.394531 92.96875 -5.84375 C 94.425781 -6.90625 95.15625 -8.425781 95.15625 -10.40625 C 95.15625 -11.59375 94.953125 -12.816406 94.546875 -14.078125 C 94.421875 -14.671875 93.429688 -17.144531 91.578125 -21.5 Z M 81.078125 -45.59375 L 61.046875 -91.875 L 40.4375 -45.59375 Z M 81.078125 -45.59375 "></path></g></g><g transform="translate(790.809596, 739.834836)"><g><path d="M 50.546875 -134.390625 L 116.859375 -51.046875 L 116.859375 -108.828125 C 116.859375 -116.890625 115.703125 -122.34375 113.390625 -125.1875 C 110.210938 -129.007812 104.890625 -130.859375 97.421875 -130.734375 L 97.421875 -134.390625 L 141.828125 -134.390625 L 141.828125 -130.734375 C 136.148438 -130.003906 132.332031 -129.0625 130.375 -127.90625 C 128.425781 -126.75 126.90625 -124.863281 125.8125 -122.25 C 124.726562 -119.644531 124.1875 -115.171875 124.1875 -108.828125 L 124.1875 3.078125 L 120.8125 3.078125 L 29.9375 -108.828125 L 29.9375 -23.390625 C 29.9375 -15.660156 31.703125 -10.441406 35.234375 -7.734375 C 38.765625 -5.023438 42.8125 -3.671875 47.375 -3.671875 L 50.546875 -3.671875 L 50.546875 0 L 2.875 0 L 2.875 -3.671875 C 10.269531 -3.734375 15.421875 -5.25 18.328125 -8.21875 C 21.242188 -11.195312 22.703125 -16.253906 22.703125 -23.390625 L 22.703125 -118.25 L 19.828125 -121.8125 C 16.984375 -125.375 14.46875 -127.71875 12.28125 -128.84375 C 10.101562 -129.96875 6.96875 -130.597656 2.875 -130.734375 L 2.875 -134.390625 Z M 50.546875 -134.390625 "></path></g></g><g transform="translate(937.400649, 739.834836)"><g><path d="M 84.4375 -38.25 L 36.96875 -38.25 L 31.3125 -25.171875 C 29.46875 -20.816406 28.546875 -17.21875 28.546875 -14.375 C 28.546875 -10.601562 30.066406 -7.828125 33.109375 -6.046875 C 34.890625 -4.984375 39.28125 -4.191406 46.28125 -3.671875 L 46.28125 0 L 1.578125 0 L 1.578125 -3.671875 C 6.410156 -4.390625 10.378906 -6.382812 13.484375 -9.65625 C 16.585938 -12.925781 20.421875 -19.6875 24.984375 -29.9375 L 73.046875 -137.171875 L 74.9375 -137.171875 L 123.390625 -26.953125 C 128.015625 -16.515625 131.816406 -9.941406 134.796875 -7.234375 C 137.046875 -5.179688 140.21875 -3.992188 144.3125 -3.671875 L 144.3125 0 L 79.296875 0 L 79.296875 -3.671875 L 81.96875 -3.671875 C 87.1875 -3.671875 90.851562 -4.394531 92.96875 -5.84375 C 94.425781 -6.90625 95.15625 -8.425781 95.15625 -10.40625 C 95.15625 -11.59375 94.953125 -12.816406 94.546875 -14.078125 C 94.421875 -14.671875 93.429688 -17.144531 91.578125 -21.5 Z M 81.078125 -45.59375 L 61.046875 -91.875 L 40.4375 -45.59375 Z M 81.078125 -45.59375 "></path></g></g></g><g fill="#000000" fill-opacity="1"><g transform="translate(486.328383, 873.520033)"><g><path d="M 45.53125 -21.546875 L 62.6875 -63.25 L 88.4375 -63.25 L 88.4375 -61.53125 L 86.390625 -61.53125 C 84.523438 -61.53125 83.03125 -61.203125 81.90625 -60.546875 C 81.132812 -60.109375 80.515625 -59.378906 80.046875 -58.359375 C 79.703125 -57.609375 79.53125 -55.664062 79.53125 -52.53125 L 79.53125 -10.828125 C 79.53125 -7.585938 79.703125 -5.5625 80.046875 -4.75 C 80.390625 -3.945312 81.085938 -3.238281 82.140625 -2.625 C 83.203125 -2.019531 84.617188 -1.71875 86.390625 -1.71875 L 88.4375 -1.71875 L 88.4375 0 L 55.421875 0 L 55.421875 -1.71875 L 57.46875 -1.71875 C 59.332031 -1.71875 60.828125 -2.046875 61.953125 -2.703125 C 62.722656 -3.140625 63.34375 -3.882812 63.8125 -4.9375 C 64.15625 -5.6875 64.328125 -7.648438 64.328125 -10.828125 L 64.328125 -57.703125 L 40.0625 0 L 38.953125 0 L 14.328125 -57.28125 L 14.328125 -12.734375 C 14.328125 -9.617188 14.398438 -7.707031 14.546875 -7 C 14.953125 -5.445312 15.832031 -4.175781 17.1875 -3.1875 C 18.539062 -2.207031 20.664062 -1.71875 23.5625 -1.71875 L 23.5625 0 L 1.90625 0 L 1.90625 -1.71875 L 2.5625 -1.71875 C 3.96875 -1.6875 5.273438 -1.910156 6.484375 -2.390625 C 7.691406 -2.878906 8.609375 -3.523438 9.234375 -4.328125 C 9.859375 -5.140625 10.34375 -6.28125 10.6875 -7.75 C 10.75 -8.082031 10.78125 -9.664062 10.78125 -12.5 L 10.78125 -52.53125 C 10.78125 -55.726562 10.609375 -57.722656 10.265625 -58.515625 C 9.921875 -59.304688 9.21875 -60.003906 8.15625 -60.609375 C 7.101562 -61.222656 5.691406 -61.53125 3.921875 -61.53125 L 1.90625 -61.53125 L 1.90625 -63.25 L 27.75 -63.25 Z M 45.53125 -21.546875 "></path></g></g></g><g fill="#000000" fill-opacity="1"><g transform="translate(576.484267, 873.520033)"><g><path d="M 13.71875 -64.75 C 15.738281 -64.75 17.445312 -64.039062 18.84375 -62.625 C 20.238281 -61.207031 20.9375 -59.503906 20.9375 -57.515625 C 20.9375 -55.523438 20.226562 -53.828125 18.8125 -52.421875 C 17.40625 -51.023438 15.707031 -50.328125 13.71875 -50.328125 C 11.726562 -50.328125 10.03125 -51.023438 8.625 -52.421875 C 7.226562 -53.828125 6.53125 -55.523438 6.53125 -57.515625 C 6.53125 -59.503906 7.226562 -61.207031 8.625 -62.625 C 10.03125 -64.039062 11.726562 -64.75 13.71875 -64.75 Z M 20.25 -43.609375 L 20.25 -9.046875 C 20.25 -5.972656 20.601562 -4.003906 21.3125 -3.140625 C 22.03125 -2.285156 23.429688 -1.796875 25.515625 -1.671875 L 25.515625 0 L 1.953125 0 L 1.953125 -1.671875 C 3.878906 -1.734375 5.3125 -2.296875 6.25 -3.359375 C 6.875 -4.078125 7.1875 -5.972656 7.1875 -9.046875 L 7.1875 -34.515625 C 7.1875 -37.597656 6.828125 -39.566406 6.109375 -40.421875 C 5.390625 -41.273438 4.003906 -41.765625 1.953125 -41.890625 L 1.953125 -43.609375 Z M 20.25 -43.609375 "></path></g></g></g><g fill="#000000" fill-opacity="1"><g transform="translate(603.022655, 873.520033)"><g><path d="M 38.8125 -11.234375 L 40.25 -10.125 C 38.195312 -6.269531 35.640625 -3.398438 32.578125 -1.515625 C 29.515625 0.367188 26.257812 1.3125 22.8125 1.3125 C 17 1.3125 12.347656 -0.878906 8.859375 -5.265625 C 5.378906 -9.648438 3.640625 -14.921875 3.640625 -21.078125 C 3.640625 -27.023438 5.222656 -32.25 8.390625 -36.75 C 12.222656 -42.195312 17.492188 -44.921875 24.203125 -44.921875 C 28.710938 -44.921875 32.296875 -43.785156 34.953125 -41.515625 C 37.617188 -39.242188 38.953125 -36.707031 38.953125 -33.90625 C 38.953125 -32.132812 38.414062 -30.71875 37.34375 -29.65625 C 36.269531 -28.601562 34.863281 -28.078125 33.125 -28.078125 C 31.28125 -28.078125 29.757812 -28.679688 28.5625 -29.890625 C 27.375 -31.109375 26.640625 -33.273438 26.359375 -36.390625 C 26.171875 -38.347656 25.71875 -39.710938 25 -40.484375 C 24.28125 -41.265625 23.441406 -41.65625 22.484375 -41.65625 C 20.992188 -41.65625 19.71875 -40.863281 18.65625 -39.28125 C 17.039062 -36.882812 16.234375 -33.210938 16.234375 -28.265625 C 16.234375 -24.160156 16.882812 -20.234375 18.1875 -16.484375 C 19.5 -12.742188 21.289062 -9.953125 23.5625 -8.109375 C 25.269531 -6.773438 27.289062 -6.109375 29.625 -6.109375 C 31.144531 -6.109375 32.585938 -6.460938 33.953125 -7.171875 C 35.328125 -7.890625 36.945312 -9.242188 38.8125 -11.234375 Z M 38.8125 -11.234375 "></path></g></g></g><g fill="#000000" fill-opacity="1"><g transform="translate(645.418778, 873.520033)"><g><path d="M 21.3125 -43.609375 L 21.3125 -33.71875 C 24.207031 -38.226562 26.742188 -41.222656 28.921875 -42.703125 C 31.097656 -44.179688 33.195312 -44.921875 35.21875 -44.921875 C 36.957031 -44.921875 38.347656 -44.382812 39.390625 -43.3125 C 40.429688 -42.238281 40.953125 -40.722656 40.953125 -38.765625 C 40.953125 -36.679688 40.445312 -35.0625 39.4375 -33.90625 C 38.425781 -32.757812 37.207031 -32.1875 35.78125 -32.1875 C 34.132812 -32.1875 32.703125 -32.710938 31.484375 -33.765625 C 30.273438 -34.828125 29.5625 -35.421875 29.34375 -35.546875 C 29.03125 -35.734375 28.671875 -35.828125 28.265625 -35.828125 C 27.367188 -35.828125 26.515625 -35.484375 25.703125 -34.796875 C 24.429688 -33.742188 23.46875 -32.234375 22.8125 -30.265625 C 21.8125 -27.253906 21.3125 -23.929688 21.3125 -20.296875 L 21.3125 -10.265625 L 21.359375 -7.65625 C 21.359375 -5.875 21.46875 -4.738281 21.6875 -4.25 C 22.0625 -3.40625 22.613281 -2.785156 23.34375 -2.390625 C 24.070312 -2.003906 25.3125 -1.765625 27.0625 -1.671875 L 27.0625 0 L 3.5 0 L 3.5 -1.671875 C 5.394531 -1.828125 6.675781 -2.347656 7.34375 -3.234375 C 8.007812 -4.128906 8.34375 -6.472656 8.34375 -10.265625 L 8.34375 -34.375 C 8.34375 -36.863281 8.21875 -38.453125 7.96875 -39.140625 C 7.664062 -40.003906 7.21875 -40.640625 6.625 -41.046875 C 6.03125 -41.453125 4.988281 -41.734375 3.5 -41.890625 L 3.5 -43.609375 Z M 21.3125 -43.609375 "></path></g></g></g><g fill="#000000" fill-opacity="1"><g transform="translate(686.089063, 873.520033)"><g><path d="M 23.796875 -44.921875 C 27.585938 -44.921875 31.113281 -43.941406 34.375 -41.984375 C 37.644531 -40.023438 40.125 -37.238281 41.8125 -33.625 C 43.507812 -30.019531 44.359375 -26.070312 44.359375 -21.78125 C 44.359375 -15.59375 42.789062 -10.414062 39.65625 -6.25 C 35.851562 -1.207031 30.609375 1.3125 23.921875 1.3125 C 17.367188 1.3125 12.316406 -0.988281 8.765625 -5.59375 C 5.222656 -10.195312 3.453125 -15.53125 3.453125 -21.59375 C 3.453125 -27.84375 5.265625 -33.289062 8.890625 -37.9375 C 12.515625 -42.59375 17.484375 -44.921875 23.796875 -44.921875 Z M 23.96875 -41.609375 C 22.382812 -41.609375 21.023438 -41.007812 19.890625 -39.8125 C 18.753906 -38.613281 18.007812 -36.25 17.65625 -32.71875 C 17.300781 -29.1875 17.125 -24.28125 17.125 -18 C 17.125 -14.675781 17.335938 -11.566406 17.765625 -8.671875 C 18.109375 -6.460938 18.835938 -4.78125 19.953125 -3.625 C 21.078125 -2.476562 22.359375 -1.90625 23.796875 -1.90625 C 25.191406 -1.90625 26.351562 -2.296875 27.28125 -3.078125 C 28.5 -4.140625 29.3125 -5.617188 29.71875 -7.515625 C 30.332031 -10.460938 30.640625 -16.429688 30.640625 -25.421875 C 30.640625 -30.710938 30.34375 -34.34375 29.75 -36.3125 C 29.164062 -38.289062 28.296875 -39.726562 27.140625 -40.625 C 26.335938 -41.28125 25.28125 -41.609375 23.96875 -41.609375 Z M 23.96875 -41.609375 "></path></g></g></g><g fill="#000000" fill-opacity="1"><g transform="translate(733.848824, 873.520033)"><g><path d="M 40.15625 -23.375 L 16.234375 -23.375 C 16.515625 -17.582031 18.050781 -13.007812 20.84375 -9.65625 C 22.988281 -7.070312 25.570312 -5.78125 28.59375 -5.78125 C 30.457031 -5.78125 32.148438 -6.300781 33.671875 -7.34375 C 35.203125 -8.382812 36.835938 -10.257812 38.578125 -12.96875 L 40.15625 -11.9375 C 37.800781 -7.125 35.191406 -3.710938 32.328125 -1.703125 C 29.460938 0.304688 26.148438 1.3125 22.390625 1.3125 C 15.921875 1.3125 11.023438 -1.175781 7.703125 -6.15625 C 5.023438 -10.164062 3.6875 -15.140625 3.6875 -21.078125 C 3.6875 -28.359375 5.648438 -34.148438 9.578125 -38.453125 C 13.515625 -42.765625 18.128906 -44.921875 23.421875 -44.921875 C 27.835938 -44.921875 31.671875 -43.109375 34.921875 -39.484375 C 38.171875 -35.859375 39.914062 -30.488281 40.15625 -23.375 Z M 28.6875 -26.5 C 28.6875 -31.5 28.414062 -34.929688 27.875 -36.796875 C 27.332031 -38.671875 26.484375 -40.085938 25.328125 -41.046875 C 24.671875 -41.609375 23.800781 -41.890625 22.71875 -41.890625 C 21.101562 -41.890625 19.78125 -41.097656 18.75 -39.515625 C 16.914062 -36.742188 16 -32.945312 16 -28.125 L 16 -26.5 Z M 28.6875 -26.5 "></path></g></g></g><g fill="#000000" fill-opacity="1"><g transform="translate(776.244947, 873.520033)"><g><path d="M 20.296875 -63.25 L 20.296875 -9.046875 C 20.296875 -5.972656 20.648438 -4.003906 21.359375 -3.140625 C 22.078125 -2.285156 23.476562 -1.796875 25.5625 -1.671875 L 25.5625 0 L 2 0 L 2 -1.671875 C 3.925781 -1.734375 5.359375 -2.296875 6.296875 -3.359375 C 6.921875 -4.078125 7.234375 -5.972656 7.234375 -9.046875 L 7.234375 -54.203125 C 7.234375 -57.253906 6.875 -59.207031 6.15625 -60.0625 C 5.4375 -60.914062 4.050781 -61.40625 2 -61.53125 L 2 -63.25 Z M 20.296875 -63.25 "></path></g></g></g><g fill="#000000" fill-opacity="1"><g transform="translate(802.783335, 873.520033)"><g><path d="M 40.15625 -23.375 L 16.234375 -23.375 C 16.515625 -17.582031 18.050781 -13.007812 20.84375 -9.65625 C 22.988281 -7.070312 25.570312 -5.78125 28.59375 -5.78125 C 30.457031 -5.78125 32.148438 -6.300781 33.671875 -7.34375 C 35.203125 -8.382812 36.835938 -10.257812 38.578125 -12.96875 L 40.15625 -11.9375 C 37.800781 -7.125 35.191406 -3.710938 32.328125 -1.703125 C 29.460938 0.304688 26.148438 1.3125 22.390625 1.3125 C 15.921875 1.3125 11.023438 -1.175781 7.703125 -6.15625 C 5.023438 -10.164062 3.6875 -15.140625 3.6875 -21.078125 C 3.6875 -28.359375 5.648438 -34.148438 9.578125 -38.453125 C 13.515625 -42.765625 18.128906 -44.921875 23.421875 -44.921875 C 27.835938 -44.921875 31.671875 -43.109375 34.921875 -39.484375 C 38.171875 -35.859375 39.914062 -30.488281 40.15625 -23.375 Z M 28.6875 -26.5 C 28.6875 -31.5 28.414062 -34.929688 27.875 -36.796875 C 27.332031 -38.671875 26.484375 -40.085938 25.328125 -41.046875 C 24.671875 -41.609375 23.800781 -41.890625 22.71875 -41.890625 C 21.101562 -41.890625 19.78125 -41.097656 18.75 -39.515625 C 16.914062 -36.742188 16 -32.945312 16 -28.125 L 16 -26.5 Z M 28.6875 -26.5 "></path></g></g></g><g fill="#000000" fill-opacity="1"><g transform="translate(845.179458, 873.520033)"><g><path d="M 38.8125 -11.234375 L 40.25 -10.125 C 38.195312 -6.269531 35.640625 -3.398438 32.578125 -1.515625 C 29.515625 0.367188 26.257812 1.3125 22.8125 1.3125 C 17 1.3125 12.347656 -0.878906 8.859375 -5.265625 C 5.378906 -9.648438 3.640625 -14.921875 3.640625 -21.078125 C 3.640625 -27.023438 5.222656 -32.25 8.390625 -36.75 C 12.222656 -42.195312 17.492188 -44.921875 24.203125 -44.921875 C 28.710938 -44.921875 32.296875 -43.785156 34.953125 -41.515625 C 37.617188 -39.242188 38.953125 -36.707031 38.953125 -33.90625 C 38.953125 -32.132812 38.414062 -30.71875 37.34375 -29.65625 C 36.269531 -28.601562 34.863281 -28.078125 33.125 -28.078125 C 31.28125 -28.078125 29.757812 -28.679688 28.5625 -29.890625 C 27.375 -31.109375 26.640625 -33.273438 26.359375 -36.390625 C 26.171875 -38.347656 25.71875 -39.710938 25 -40.484375 C 24.28125 -41.265625 23.441406 -41.65625 22.484375 -41.65625 C 20.992188 -41.65625 19.71875 -40.863281 18.65625 -39.28125 C 17.039062 -36.882812 16.234375 -33.210938 16.234375 -28.265625 C 16.234375 -24.160156 16.882812 -20.234375 18.1875 -16.484375 C 19.5 -12.742188 21.289062 -9.953125 23.5625 -8.109375 C 25.269531 -6.773438 27.289062 -6.109375 29.625 -6.109375 C 31.144531 -6.109375 32.585938 -6.460938 33.953125 -7.171875 C 35.328125 -7.890625 36.945312 -9.242188 38.8125 -11.234375 Z M 38.8125 -11.234375 "></path></g></g></g><g fill="#000000" fill-opacity="1"><g transform="translate(887.575602, 873.520033)"><g><path d="M 20.53125 -59.5625 L 20.53125 -43.609375 L 30.875 -43.609375 L 30.875 -39 L 20.53125 -39 L 20.53125 -12.078125 C 20.53125 -9.554688 20.644531 -7.929688 20.875 -7.203125 C 21.101562 -6.472656 21.515625 -5.882812 22.109375 -5.4375 C 22.703125 -4.988281 23.25 -4.765625 23.75 -4.765625 C 25.769531 -4.765625 27.679688 -6.300781 29.484375 -9.375 L 30.875 -8.34375 C 28.351562 -2.375 24.265625 0.609375 18.609375 0.609375 C 15.835938 0.609375 13.492188 -0.160156 11.578125 -1.703125 C 9.671875 -3.242188 8.457031 -4.960938 7.9375 -6.859375 C 7.625 -7.910156 7.46875 -10.769531 7.46875 -15.4375 L 7.46875 -39 L 1.765625 -39 L 1.765625 -40.625 C 5.691406 -43.394531 9.03125 -46.300781 11.78125 -49.34375 C 14.53125 -52.394531 16.929688 -55.800781 18.984375 -59.5625 Z M 20.53125 -59.5625 "></path></g></g></g><g fill="#000000" fill-opacity="1"><g transform="translate(919.384315, 873.520033)"><g><path d="M 21.3125 -43.609375 L 21.3125 -33.71875 C 24.207031 -38.226562 26.742188 -41.222656 28.921875 -42.703125 C 31.097656 -44.179688 33.195312 -44.921875 35.21875 -44.921875 C 36.957031 -44.921875 38.347656 -44.382812 39.390625 -43.3125 C 40.429688 -42.238281 40.953125 -40.722656 40.953125 -38.765625 C 40.953125 -36.679688 40.445312 -35.0625 39.4375 -33.90625 C 38.425781 -32.757812 37.207031 -32.1875 35.78125 -32.1875 C 34.132812 -32.1875 32.703125 -32.710938 31.484375 -33.765625 C 30.273438 -34.828125 29.5625 -35.421875 29.34375 -35.546875 C 29.03125 -35.734375 28.671875 -35.828125 28.265625 -35.828125 C 27.367188 -35.828125 26.515625 -35.484375 25.703125 -34.796875 C 24.429688 -33.742188 23.46875 -32.234375 22.8125 -30.265625 C 21.8125 -27.253906 21.3125 -23.929688 21.3125 -20.296875 L 21.3125 -10.265625 L 21.359375 -7.65625 C 21.359375 -5.875 21.46875 -4.738281 21.6875 -4.25 C 22.0625 -3.40625 22.613281 -2.785156 23.34375 -2.390625 C 24.070312 -2.003906 25.3125 -1.765625 27.0625 -1.671875 L 27.0625 0 L 3.5 0 L 3.5 -1.671875 C 5.394531 -1.828125 6.675781 -2.347656 7.34375 -3.234375 C 8.007812 -4.128906 8.34375 -6.472656 8.34375 -10.265625 L 8.34375 -34.375 C 8.34375 -36.863281 8.21875 -38.453125 7.96875 -39.140625 C 7.664062 -40.003906 7.21875 -40.640625 6.625 -41.046875 C 6.03125 -41.453125 4.988281 -41.734375 3.5 -41.890625 L 3.5 -43.609375 Z M 21.3125 -43.609375 "></path></g></g></g><g fill="#000000" fill-opacity="1"><g transform="translate(960.0546, 873.520033)"><g><path d="M 23.796875 -44.921875 C 27.585938 -44.921875 31.113281 -43.941406 34.375 -41.984375 C 37.644531 -40.023438 40.125 -37.238281 41.8125 -33.625 C 43.507812 -30.019531 44.359375 -26.070312 44.359375 -21.78125 C 44.359375 -15.59375 42.789062 -10.414062 39.65625 -6.25 C 35.851562 -1.207031 30.609375 1.3125 23.921875 1.3125 C 17.367188 1.3125 12.316406 -0.988281 8.765625 -5.59375 C 5.222656 -10.195312 3.453125 -15.53125 3.453125 -21.59375 C 3.453125 -27.84375 5.265625 -33.289062 8.890625 -37.9375 C 12.515625 -42.59375 17.484375 -44.921875 23.796875 -44.921875 Z M 23.96875 -41.609375 C 22.382812 -41.609375 21.023438 -41.007812 19.890625 -39.8125 C 18.753906 -38.613281 18.007812 -36.25 17.65625 -32.71875 C 17.300781 -29.1875 17.125 -24.28125 17.125 -18 C 17.125 -14.675781 17.335938 -11.566406 17.765625 -8.671875 C 18.109375 -6.460938 18.835938 -4.78125 19.953125 -3.625 C 21.078125 -2.476562 22.359375 -1.90625 23.796875 -1.90625 C 25.191406 -1.90625 26.351562 -2.296875 27.28125 -3.078125 C 28.5 -4.140625 29.3125 -5.617188 29.71875 -7.515625 C 30.332031 -10.460938 30.640625 -16.429688 30.640625 -25.421875 C 30.640625 -30.710938 30.34375 -34.34375 29.75 -36.3125 C 29.164062 -38.289062 28.296875 -39.726562 27.140625 -40.625 C 26.335938 -41.28125 25.28125 -41.609375 23.96875 -41.609375 Z M 23.96875 -41.609375 "></path></g></g></g><g fill="#000000" fill-opacity="1"><g transform="translate(1007.814362, 873.520033)"><g><path d="M 21.03125 -43.609375 L 21.03125 -37.96875 C 23.269531 -40.394531 25.414062 -42.160156 27.46875 -43.265625 C 29.519531 -44.367188 31.726562 -44.921875 34.09375 -44.921875 C 36.925781 -44.921875 39.273438 -44.132812 41.140625 -42.5625 C 43.003906 -40.988281 44.25 -39.035156 44.875 -36.703125 C 45.375 -34.929688 45.625 -31.53125 45.625 -26.5 L 45.625 -9.515625 C 45.625 -6.160156 45.925781 -4.066406 46.53125 -3.234375 C 47.132812 -2.410156 48.398438 -1.890625 50.328125 -1.671875 L 50.328125 0 L 28.265625 0 L 28.265625 -1.671875 C 29.910156 -1.890625 31.09375 -2.578125 31.8125 -3.734375 C 32.3125 -4.503906 32.5625 -6.429688 32.5625 -9.515625 L 32.5625 -28.921875 C 32.5625 -32.492188 32.421875 -34.742188 32.140625 -35.671875 C 31.859375 -36.609375 31.382812 -37.332031 30.71875 -37.84375 C 30.050781 -38.363281 29.3125 -38.625 28.5 -38.625 C 25.820312 -38.625 23.332031 -36.710938 21.03125 -32.890625 L 21.03125 -9.515625 C 21.03125 -6.253906 21.332031 -4.1875 21.9375 -3.3125 C 22.550781 -2.4375 23.679688 -1.890625 25.328125 -1.671875 L 25.328125 0 L 3.265625 0 L 3.265625 -1.671875 C 5.097656 -1.859375 6.40625 -2.453125 7.1875 -3.453125 C 7.707031 -4.140625 7.96875 -6.160156 7.96875 -9.515625 L 7.96875 -34.140625 C 7.96875 -37.441406 7.664062 -39.492188 7.0625 -40.296875 C 6.457031 -41.109375 5.191406 -41.640625 3.265625 -41.890625 L 3.265625 -43.609375 Z M 21.03125 -43.609375 "></path></g></g></g><g fill="#000000" fill-opacity="1"><g transform="translate(1060.937786, 873.520033)"><g><path d="M 13.71875 -64.75 C 15.738281 -64.75 17.445312 -64.039062 18.84375 -62.625 C 20.238281 -61.207031 20.9375 -59.503906 20.9375 -57.515625 C 20.9375 -55.523438 20.226562 -53.828125 18.8125 -52.421875 C 17.40625 -51.023438 15.707031 -50.328125 13.71875 -50.328125 C 11.726562 -50.328125 10.03125 -51.023438 8.625 -52.421875 C 7.226562 -53.828125 6.53125 -55.523438 6.53125 -57.515625 C 6.53125 -59.503906 7.226562 -61.207031 8.625 -62.625 C 10.03125 -64.039062 11.726562 -64.75 13.71875 -64.75 Z M 20.25 -43.609375 L 20.25 -9.046875 C 20.25 -5.972656 20.601562 -4.003906 21.3125 -3.140625 C 22.03125 -2.285156 23.429688 -1.796875 25.515625 -1.671875 L 25.515625 0 L 1.953125 0 L 1.953125 -1.671875 C 3.878906 -1.734375 5.3125 -2.296875 6.25 -3.359375 C 6.875 -4.078125 7.1875 -5.972656 7.1875 -9.046875 L 7.1875 -34.515625 C 7.1875 -37.597656 6.828125 -39.566406 6.109375 -40.421875 C 5.390625 -41.273438 4.003906 -41.765625 1.953125 -41.890625 L 1.953125 -43.609375 Z M 20.25 -43.609375 "></path></g></g></g><g fill="#000000" fill-opacity="1"><g transform="translate(1087.476174, 873.520033)"><g><path d="M 38.8125 -11.234375 L 40.25 -10.125 C 38.195312 -6.269531 35.640625 -3.398438 32.578125 -1.515625 C 29.515625 0.367188 26.257812 1.3125 22.8125 1.3125 C 17 1.3125 12.347656 -0.878906 8.859375 -5.265625 C 5.378906 -9.648438 3.640625 -14.921875 3.640625 -21.078125 C 3.640625 -27.023438 5.222656 -32.25 8.390625 -36.75 C 12.222656 -42.195312 17.492188 -44.921875 24.203125 -44.921875 C 28.710938 -44.921875 32.296875 -43.785156 34.953125 -41.515625 C 37.617188 -39.242188 38.953125 -36.707031 38.953125 -33.90625 C 38.953125 -32.132812 38.414062 -30.71875 37.34375 -29.65625 C 36.269531 -28.601562 34.863281 -28.078125 33.125 -28.078125 C 31.28125 -28.078125 29.757812 -28.679688 28.5625 -29.890625 C 27.375 -31.109375 26.640625 -33.273438 26.359375 -36.390625 C 26.171875 -38.347656 25.71875 -39.710938 25 -40.484375 C 24.28125 -41.265625 23.441406 -41.65625 22.484375 -41.65625 C 20.992188 -41.65625 19.71875 -40.863281 18.65625 -39.28125 C 17.039062 -36.882812 16.234375 -33.210938 16.234375 -28.265625 C 16.234375 -24.160156 16.882812 -20.234375 18.1875 -16.484375 C 19.5 -12.742188 21.289062 -9.953125 23.5625 -8.109375 C 25.269531 -6.773438 27.289062 -6.109375 29.625 -6.109375 C 31.144531 -6.109375 32.585938 -6.460938 33.953125 -7.171875 C 35.328125 -7.890625 36.945312 -9.242188 38.8125 -11.234375 Z M 38.8125 -11.234375 "></path></g></g></g><g fill="#000000" fill-opacity="1"><g transform="translate(1129.872274, 873.520033)"><g><path d="M 30.78125 -44.828125 L 31.484375 -29.953125 L 29.90625 -29.953125 C 28.007812 -34.367188 26.039062 -37.382812 24 -39 C 21.957031 -40.613281 19.925781 -41.421875 17.90625 -41.421875 C 16.632812 -41.421875 15.546875 -40.992188 14.640625 -40.140625 C 13.742188 -39.285156 13.296875 -38.296875 13.296875 -37.171875 C 13.296875 -36.335938 13.609375 -35.53125 14.234375 -34.75 C 15.222656 -33.476562 18.003906 -31.296875 22.578125 -28.203125 C 27.148438 -25.109375 30.15625 -22.476562 31.59375 -20.3125 C 33.039062 -18.15625 33.765625 -15.738281 33.765625 -13.0625 C 33.765625 -10.632812 33.160156 -8.253906 31.953125 -5.921875 C 30.742188 -3.585938 29.035156 -1.796875 26.828125 -0.546875 C 24.617188 0.691406 22.175781 1.3125 19.5 1.3125 C 17.414062 1.3125 14.628906 0.65625 11.140625 -0.65625 C 10.210938 -1 9.578125 -1.171875 9.234375 -1.171875 C 8.210938 -1.171875 7.359375 -0.390625 6.671875 1.171875 L 5.125 1.171875 L 4.390625 -14.5 L 5.96875 -14.5 C 7.363281 -10.394531 9.28125 -7.316406 11.71875 -5.265625 C 14.164062 -3.210938 16.476562 -2.1875 18.65625 -2.1875 C 20.144531 -2.1875 21.363281 -2.644531 22.3125 -3.5625 C 23.269531 -4.476562 23.75 -5.59375 23.75 -6.90625 C 23.75 -8.394531 23.28125 -9.679688 22.34375 -10.765625 C 21.40625 -11.859375 19.320312 -13.507812 16.09375 -15.71875 C 11.332031 -19.019531 8.253906 -21.539062 6.859375 -23.28125 C 4.804688 -25.820312 3.78125 -28.632812 3.78125 -31.71875 C 3.78125 -35.070312 4.9375 -38.109375 7.25 -40.828125 C 9.570312 -43.554688 12.925781 -44.921875 17.3125 -44.921875 C 19.664062 -44.921875 21.945312 -44.34375 24.15625 -43.1875 C 25 -42.726562 25.6875 -42.5 26.21875 -42.5 C 26.78125 -42.5 27.226562 -42.613281 27.5625 -42.84375 C 27.90625 -43.070312 28.453125 -43.734375 29.203125 -44.828125 Z M 30.78125 -44.828125 "></path></g></g></g><g fill="#000000" fill-opacity="1"><g transform="translate(1167.044694, 873.520033)"><g></g></g></g><g fill="#000000" fill-opacity="1"><g transform="translate(1190.924575, 873.520033)"><g><path d="M 65.90625 -64.703125 L 65.90625 -42.40625 L 64.1875 -42.40625 C 62.101562 -48.5 58.976562 -53.128906 54.8125 -56.296875 C 50.644531 -59.472656 46.085938 -61.0625 41.140625 -61.0625 C 36.410156 -61.0625 32.472656 -59.726562 29.328125 -57.0625 C 26.191406 -54.40625 23.96875 -50.695312 22.65625 -45.9375 C 21.351562 -41.1875 20.703125 -36.304688 20.703125 -31.296875 C 20.703125 -25.234375 21.414062 -19.914062 22.84375 -15.34375 C 24.28125 -10.769531 26.59375 -7.410156 29.78125 -5.265625 C 32.96875 -3.117188 36.753906 -2.046875 41.140625 -2.046875 C 42.660156 -2.046875 44.222656 -2.207031 45.828125 -2.53125 C 47.429688 -2.863281 49.070312 -3.34375 50.75 -3.96875 L 50.75 -17.125 C 50.75 -19.601562 50.578125 -21.207031 50.234375 -21.9375 C 49.890625 -22.675781 49.179688 -23.335938 48.109375 -23.921875 C 47.035156 -24.515625 45.738281 -24.8125 44.21875 -24.8125 L 42.59375 -24.8125 L 42.59375 -26.546875 L 73.328125 -26.546875 L 73.328125 -24.8125 C 70.992188 -24.65625 69.367188 -24.335938 68.453125 -23.859375 C 67.535156 -23.378906 66.828125 -22.578125 66.328125 -21.453125 C 66.046875 -20.867188 65.90625 -19.425781 65.90625 -17.125 L 65.90625 -3.96875 C 61.863281 -2.164062 57.65625 -0.804688 53.28125 0.109375 C 48.914062 1.035156 44.390625 1.5 39.703125 1.5 C 33.691406 1.5 28.703125 0.679688 24.734375 -0.953125 C 20.773438 -2.585938 17.28125 -4.734375 14.25 -7.390625 C 11.21875 -10.046875 8.847656 -13.039062 7.140625 -16.375 C 4.960938 -20.664062 3.875 -25.46875 3.875 -30.78125 C 3.875 -40.300781 7.210938 -48.34375 13.890625 -54.90625 C 20.578125 -61.46875 28.992188 -64.75 39.140625 -64.75 C 42.273438 -64.75 45.101562 -64.5 47.625 -64 C 48.988281 -63.75 51.203125 -63.039062 54.265625 -61.875 C 57.335938 -60.707031 59.148438 -60.125 59.703125 -60.125 C 60.578125 -60.125 61.382812 -60.441406 62.125 -61.078125 C 62.875 -61.722656 63.5625 -62.929688 64.1875 -64.703125 Z M 65.90625 -64.703125 "></path></g></g></g><g fill="#000000" fill-opacity="1"><g transform="translate(1265.222726, 873.520033)"><g><path d="M 21.3125 -43.609375 L 21.3125 -33.71875 C 24.207031 -38.226562 26.742188 -41.222656 28.921875 -42.703125 C 31.097656 -44.179688 33.195312 -44.921875 35.21875 -44.921875 C 36.957031 -44.921875 38.347656 -44.382812 39.390625 -43.3125 C 40.429688 -42.238281 40.953125 -40.722656 40.953125 -38.765625 C 40.953125 -36.679688 40.445312 -35.0625 39.4375 -33.90625 C 38.425781 -32.757812 37.207031 -32.1875 35.78125 -32.1875 C 34.132812 -32.1875 32.703125 -32.710938 31.484375 -33.765625 C 30.273438 -34.828125 29.5625 -35.421875 29.34375 -35.546875 C 29.03125 -35.734375 28.671875 -35.828125 28.265625 -35.828125 C 27.367188 -35.828125 26.515625 -35.484375 25.703125 -34.796875 C 24.429688 -33.742188 23.46875 -32.234375 22.8125 -30.265625 C 21.8125 -27.253906 21.3125 -23.929688 21.3125 -20.296875 L 21.3125 -10.265625 L 21.359375 -7.65625 C 21.359375 -5.875 21.46875 -4.738281 21.6875 -4.25 C 22.0625 -3.40625 22.613281 -2.785156 23.34375 -2.390625 C 24.070312 -2.003906 25.3125 -1.765625 27.0625 -1.671875 L 27.0625 0 L 3.5 0 L 3.5 -1.671875 C 5.394531 -1.828125 6.675781 -2.347656 7.34375 -3.234375 C 8.007812 -4.128906 8.34375 -6.472656 8.34375 -10.265625 L 8.34375 -34.375 C 8.34375 -36.863281 8.21875 -38.453125 7.96875 -39.140625 C 7.664062 -40.003906 7.21875 -40.640625 6.625 -41.046875 C 6.03125 -41.453125 4.988281 -41.734375 3.5 -41.890625 L 3.5 -43.609375 Z M 21.3125 -43.609375 "></path></g></g></g><g fill="#000000" fill-opacity="1"><g transform="translate(1305.89301, 873.520033)"><g><path d="M 23.796875 -44.921875 C 27.585938 -44.921875 31.113281 -43.941406 34.375 -41.984375 C 37.644531 -40.023438 40.125 -37.238281 41.8125 -33.625 C 43.507812 -30.019531 44.359375 -26.070312 44.359375 -21.78125 C 44.359375 -15.59375 42.789062 -10.414062 39.65625 -6.25 C 35.851562 -1.207031 30.609375 1.3125 23.921875 1.3125 C 17.367188 1.3125 12.316406 -0.988281 8.765625 -5.59375 C 5.222656 -10.195312 3.453125 -15.53125 3.453125 -21.59375 C 3.453125 -27.84375 5.265625 -33.289062 8.890625 -37.9375 C 12.515625 -42.59375 17.484375 -44.921875 23.796875 -44.921875 Z M 23.96875 -41.609375 C 22.382812 -41.609375 21.023438 -41.007812 19.890625 -39.8125 C 18.753906 -38.613281 18.007812 -36.25 17.65625 -32.71875 C 17.300781 -29.1875 17.125 -24.28125 17.125 -18 C 17.125 -14.675781 17.335938 -11.566406 17.765625 -8.671875 C 18.109375 -6.460938 18.835938 -4.78125 19.953125 -3.625 C 21.078125 -2.476562 22.359375 -1.90625 23.796875 -1.90625 C 25.191406 -1.90625 26.351562 -2.296875 27.28125 -3.078125 C 28.5 -4.140625 29.3125 -5.617188 29.71875 -7.515625 C 30.332031 -10.460938 30.640625 -16.429688 30.640625 -25.421875 C 30.640625 -30.710938 30.34375 -34.34375 29.75 -36.3125 C 29.164062 -38.289062 28.296875 -39.726562 27.140625 -40.625 C 26.335938 -41.28125 25.28125 -41.609375 23.96875 -41.609375 Z M 23.96875 -41.609375 "></path></g></g></g><g fill="#000000" fill-opacity="1"><g transform="translate(1353.652772, 873.520033)"><g><path d="M 45.34375 -43.609375 L 45.34375 -9.46875 C 45.34375 -6.144531 45.648438 -4.066406 46.265625 -3.234375 C 46.890625 -2.410156 48.148438 -1.890625 50.046875 -1.671875 L 50.046875 0 L 32.28125 0 L 32.28125 -5.828125 C 30.195312 -3.335938 28.113281 -1.523438 26.03125 -0.390625 C 23.945312 0.742188 21.613281 1.3125 19.03125 1.3125 C 16.570312 1.3125 14.382812 0.554688 12.46875 -0.953125 C 10.5625 -2.460938 9.28125 -4.226562 8.625 -6.25 C 7.976562 -8.269531 7.65625 -11.800781 7.65625 -16.84375 L 7.65625 -34.140625 C 7.65625 -37.441406 7.347656 -39.492188 6.734375 -40.296875 C 6.128906 -41.109375 4.863281 -41.640625 2.9375 -41.890625 L 2.9375 -43.609375 L 20.703125 -43.609375 L 20.703125 -13.8125 C 20.703125 -10.695312 20.847656 -8.6875 21.140625 -7.78125 C 21.441406 -6.882812 21.910156 -6.203125 22.546875 -5.734375 C 23.191406 -5.265625 23.929688 -5.03125 24.765625 -5.03125 C 25.890625 -5.03125 26.898438 -5.328125 27.796875 -5.921875 C 29.046875 -6.734375 30.539062 -8.367188 32.28125 -10.828125 L 32.28125 -34.140625 C 32.28125 -37.441406 31.972656 -39.492188 31.359375 -40.296875 C 30.753906 -41.109375 29.488281 -41.640625 27.5625 -41.890625 L 27.5625 -43.609375 Z M 45.34375 -43.609375 "></path></g></g></g><g fill="#000000" fill-opacity="1"><g transform="translate(1406.77615, 873.520033)"><g><path d="M 20.109375 -4.4375 L 20.109375 11.796875 C 20.109375 14.035156 20.285156 15.554688 20.640625 16.359375 C 20.992188 17.171875 21.546875 17.765625 22.296875 18.140625 C 23.046875 18.515625 24.507812 18.703125 26.6875 18.703125 L 26.6875 20.4375 L 1.8125 20.4375 L 1.8125 18.703125 C 3.75 18.640625 5.179688 18.097656 6.109375 17.078125 C 6.734375 16.359375 7.046875 14.503906 7.046875 11.515625 L 7.046875 -34.515625 C 7.046875 -37.597656 6.6875 -39.566406 5.96875 -40.421875 C 5.25 -41.273438 3.863281 -41.765625 1.8125 -41.890625 L 1.8125 -43.609375 L 20.109375 -43.609375 L 20.109375 -37.875 C 21.628906 -40.113281 23.179688 -41.734375 24.765625 -42.734375 C 27.035156 -44.191406 29.507812 -44.921875 32.1875 -44.921875 C 35.382812 -44.921875 38.296875 -43.910156 40.921875 -41.890625 C 43.554688 -39.867188 45.554688 -37.078125 46.921875 -33.515625 C 48.296875 -29.953125 48.984375 -26.117188 48.984375 -22.015625 C 48.984375 -17.597656 48.273438 -13.5625 46.859375 -9.90625 C 45.441406 -6.257812 43.382812 -3.476562 40.6875 -1.5625 C 38 0.351562 35.007812 1.3125 31.71875 1.3125 C 29.320312 1.3125 27.082031 0.78125 25 -0.28125 C 23.445312 -1.09375 21.816406 -2.476562 20.109375 -4.4375 Z M 20.109375 -9.140625 C 22.773438 -5.347656 25.632812 -3.453125 28.6875 -3.453125 C 30.363281 -3.453125 31.75 -4.335938 32.84375 -6.109375 C 34.457031 -8.722656 35.265625 -13.695312 35.265625 -21.03125 C 35.265625 -28.5625 34.378906 -33.710938 32.609375 -36.484375 C 31.421875 -38.316406 29.832031 -39.234375 27.84375 -39.234375 C 24.707031 -39.234375 22.128906 -36.960938 20.109375 -32.421875 Z M 20.109375 -9.140625 "></path></g></g></g></svg>